<?xml version="1.0" standalone="no"?><!DOCTYPE svg PUBLIC "-//W3C//DTD SVG 1.1//EN" "http://www.w3.org/Graphics/SVG/1.1/DTD/svg11.dtd"><svg t="1677674436403" class="icon" viewBox="0 0 1026 1024" version="1.1" xmlns="http://www.w3.org/2000/svg" p-id="2983" xmlns:xlink="http://www.w3.org/1999/xlink" width="200.390625" height="200"><path d="M1004.8 138.666667h-981.333333c-12.8 0-21.333333-8.533333-21.333334-21.333334s8.533333-21.333333 21.333334-21.333333h981.333333c12.8 0 21.333333 8.533333 21.333333 21.333333s-10.666667 21.333333-21.333333 21.333334z" p-id="2984" fill="#515151"></path><path d="M663.466667 117.333333h-42.666667V85.333333c0-23.466667-19.2-42.666667-42.666667-42.666666h-128c-23.466667 0-42.666667 19.2-42.666666 42.666666v29.866667h-42.666667V85.333333c0-46.933333 38.4-85.333333 85.333333-85.333333h128c46.933333 0 85.333333 38.4 85.333334 85.333333v32zM706.133333 1024h-384c-130.133333 0-234.666667-104.533333-234.666666-234.666667V177.066667h42.666666V789.333333c0 106.666667 85.333333 192 192 192h384c106.666667 0 192-85.333333 192-192V177.066667h42.666667V789.333333c0 130.133333-106.666667 234.666667-234.666667 234.666667z" p-id="2985" fill="#515151"></path><path d="M390.4 396.8h42.666667v384h-42.666667zM593.066667 396.8h42.666666v384h-42.666666z" p-id="2986" fill="#515151"></path></svg>